<?xml version="1.0" encoding="UTF-8"?>
<svg id="Layer_1" data-name="Layer 1" xmlns="http://www.w3.org/2000/svg" viewBox="0 0 795.74 258.37">
  <defs>
    <style>
      .cls-1 {
        fill: #9e2236;
      }

      .cls-2 {
        fill: #fff;
        stroke: #9e2236;
        stroke-miterlimit: 10;
        stroke-width: 3px;
      }
    </style>
  </defs>
  <g>
    <path class="cls-1" d="M127.22,155.8H39.23l23.59-19.96V13.15L0,60.78,8.16,3.17h150.13l8.16,57.6L103.64,13.15v122.69l23.58,19.96Z"/>
    <path class="cls-1" d="M257.4,135.84l-8.62-20.64h-61.46l-8.62,20.64,23.58,19.96h-65.31l23.59-19.96,48.76-114.07-7.94-18.6h43.77l64.86,152.62h-76.2l23.59-19.96ZM241.98,99.56l-24.27-57.83-24.04,57.83h48.3Z"/>
    <path class="cls-1" d="M310.02,3.17h94.11c31.07,0,47.17,17.01,47.17,34.47,0,14.97-11.34,30.39-36.06,35.15,31.98,2.04,47.62,20.64,47.62,39.91,0,21.32-18.82,43.09-56.7,43.09h-96.15l23.58-19.96V23.13l-23.58-19.96ZM374.43,16.1v51.48c23.36,0,33.34-11.79,33.34-27.44,0-14.51-8.62-24.04-22.22-24.04h-11.11ZM419.1,112.48c0-17.01-11.11-29.25-33.34-29.25h-11.34v59.19h12.25c21.09,0,32.43-12.7,32.43-29.93Z"/>
    <path class="cls-1" d="M549.73,0c50.8,0,80.05,32.66,80.05,78.01s-30.39,80.51-82.32,80.51-80.05-32.66-80.05-78.01S497.8,0,549.73,0ZM553.59,146.95c19.73,0,29.48-20.41,29.48-58.06,0-44.22-13.61-77.33-38.55-77.33-19.73,0-30.16,20.41-30.16,58.06,0,44.22,14.29,77.33,39.23,77.33Z"/>
    <path class="cls-1" d="M795.74,145.82c-7.26,7.71-16.78,12.7-32.43,12.7-17.46,0-32.66-6.35-45.36-27.21l-31.75-52.39v56.92l23.58,19.96h-87.99l23.59-19.96V23.13l-23.59-19.96h92.53c36.74,0,53.29,18.6,53.29,37.65,0,16.1-11.79,32.2-33.34,37.42l29.71,43.54c9.3,13.61,20.86,21.77,31.75,24.04ZM721.36,41.05c0-12.7-9.07-24.94-25.4-24.94h-9.75v53.52c24.27,0,35.15-14.51,35.15-28.58Z"/>
  </g>
  <g>
    <path class="cls-2" d="M38.24,224.58c-4.17,5.68-6.26,11.01-6.26,15.68,0,8.7,7.84,14.74,19.28,14.74,9.42,0,19.85-3.02,27.84-7.98,7.7-4.75,12.37-10.86,13.23-17.41,1.22-9.35-7.84-16.26-15.54-23.66-5.11-4.96-9.71-10.21-9.49-16.4.29-9.71,14.74-18.77,29.56-18.77,11.08,0,20.14,5.39,20.14,12.16,0,2.66-1.51,5.47-4.32,8.2l-1.29-1.37c2.52-2.37,3.74-4.68,3.74-6.83,0-5.61-8.34-10.29-18.27-10.29-13.81,0-27.48,8.34-27.69,16.97-.22,5.47,3.88,10.07,8.92,14.96,7.62,7.34,17.48,14.89,16.11,25.32-.94,7.05-5.97,13.67-14.17,18.7-8.2,5.18-18.99,8.27-28.77,8.27-12.44,0-21.15-6.76-21.15-16.62,0-5.04,2.23-10.79,6.62-16.76l1.51,1.08Z"/>
    <path class="cls-2" d="M147.79,213.59c-8.56,4.32-21.94,9.71-30.21,7.98-5.32-1.08-7.62-4.96-7.41-8.7v-.14c.36-3.81,3.45-7.41,8.99-7.41,2.16,0,3.81,1.44,3.81,3.38,0,5.25-6.62,8.41-10.29,7.34.86,1.73,2.59,3.16,5.25,3.67,7.7,1.58,20.5-3.52,29.06-7.84l.79,1.73ZM112.04,212.87c.22,3.31,9.06.94,9.06-4.17,0-.86-.79-1.51-1.94-1.51-4.39,0-6.83,2.73-7.12,5.68Z"/>
    <path class="cls-2" d="M170.59,220.57c-2.73,0-5.25-.79-7.48-1.87-1.51,1.51-3.74,2.45-6.47,2.45-3.81,0-7.05-3.81-7.91-8.27-.58.22-1.15.5-1.73.72l-.72-1.73c.72-.29,1.44-.65,2.16-.94,0-1.29.14-2.52.5-3.74.79-2.52,2.45-1.58,5.04,1.08,2.73-1.37,5.39-2.81,8.2-4.32.65-1.87,3.02-2.01,3.02-2.01h.07c1.15,0,1.58,1.58.58,2.01-.65.36-1.22.65-1.8,1.01-.07.43,0,1.08.36,1.94,1.73,3.88,1.58,7.55-.07,10.29,1.87.94,3.96,1.51,6.26,1.51,7.77,0,16.61-3.38,23.88-6.83l.86,1.73c-7.41,3.45-16.69,6.98-24.74,6.98ZM150.31,210.06c.65-.29,1.29-.65,1.94-.93-1.51-1.65-1.44-1.58-1.58-1.37-.22.72-.36,1.51-.36,2.3ZM161.46,217.69c-3.31-2.09-5.9-4.96-7.84-7.12l-3.17,1.51c.58,3.81,3.17,7.19,6.19,7.19,1.94,0,3.6-.58,4.82-1.58ZM162.1,206.04c-2.3,1.29-4.53,2.52-6.76,3.67,1.94,2.16,4.39,4.67,7.34,6.55,1.37-2.16,1.51-5.32,0-8.63-.29-.58-.43-1.08-.58-1.58Z"/>
    <path class="cls-2" d="M220.73,216.75c-7.12,3.6-15.68,7.84-24.6,10.07-5.04,7.48-9.93,14.53-13.81,18.27l-1.29-1.29c4.24-4.24,10-12.73,15.82-21.36l3.88-5.83c-2.16,1.73-4.46,3.09-6.33,3.09-1.44,0-2.3-1.58-2.3-3.38,0-4.32,4.82-9.35,9.13-9.35,1.73,0,3.16.93,4.32,2.59l.72-.79.07-.07.65.65.72.58c-2.95,4.03-6.11,8.77-9.35,13.52l-.65,1.01c7.98-2.23,15.68-6.04,22.15-9.35,2.37-1.15,4.53-2.3,6.62-3.24l.72,1.73c-1.94.94-4.17,2.01-6.47,3.16ZM194.4,217.83c2.73,0,6.98-4.03,9.78-6.9-.79-1.44-1.73-2.09-2.95-2.09-3.24,0-7.26,4.24-7.26,7.48,0,.79.29,1.51.43,1.51Z"/>
    <path class="cls-2" d="M262.37,213.59c-8.2,3.45-19.64,7.77-24.53,7.77-3.16,0-5.03-1.44-5.03-3.96,0-.58.14-1.15.43-1.8-2.88,2.23-5.97,4.1-8.7,4.1-3.6,0-1.73-3.67,1.94-9.21,1.08-1.51,2.01-2.88,2.45-3.88l1.73.86c-.58,1.08-1.58,2.52-2.59,4.03-3.02,4.53-3.88,6.33-3.52,6.33,5.11,0,12.59-8.34,14.74-11l.07-.07.07-.07.86.72.65.43-1.29,1.58c-3.38,4.1-4.96,6.55-4.96,7.98s.94,2.09,3.16,2.09c3.6,0,12.37-2.8,23.81-7.62l.72,1.73Z"/>
    <path class="cls-2" d="M308.55,213.59c-7.41,3.6-19.42,6.98-28.2,6.98s-13.45-2.09-13.45-6.47c0-1.08.29-2.16.86-3.24-1.65.79-3.67,1.65-6.11,2.73l-.72-1.73c6.11-2.59,9.35-4.24,10.57-5.25l.07-.07,1.22,1.44c-2.95,2.52-4.03,4.17-4.03,6.11,0,3.02,3.67,4.6,11.58,4.6,8.49,0,20.07-3.24,27.33-6.83l.86,1.73ZM277.98,204.17l-1.01-1.58,3.74-2.45,1.01,1.58-3.74,2.45Z"/>
    <path class="cls-2" d="M317.76,210.86c3.31-2.95,3.09-4.6-.29-4.6-5.68,0-11.44,6.98-8.49,10.5,3.31,3.96,24.89,1.29,38.62-4.89l.72,1.73c-14.89,6.69-36.75,9.13-40.78,4.32-4.03-4.75,2.59-13.52,9.93-13.52,5.25,0,6.04,3.88,1.51,7.84l-1.22-1.37Z"/>
    <path class="cls-2" d="M383.94,213.59c-8.56,4.32-21.94,9.71-30.21,7.98-5.32-1.08-7.62-4.96-7.41-8.7v-.14c.36-3.81,3.45-7.41,8.99-7.41,2.16,0,3.81,1.44,3.81,3.38,0,5.25-6.62,8.41-10.29,7.34.86,1.73,2.59,3.16,5.25,3.67,7.7,1.58,20.5-3.52,29.06-7.84l.79,1.73ZM348.19,212.87c.22,3.31,9.06.94,9.06-4.17,0-.86-.79-1.51-1.94-1.51-4.39,0-6.83,2.73-7.12,5.68Z"/>
    <path class="cls-2" d="M443.64,213.59c-7.41,3.45-16.69,6.98-25.46,6.98-6.33,0-9.71-1.65-9.71-5.18,0-1.87,1.44-4.17,2.59-5.97.86-1.37,1.15-1.94,1.22-2.16-.65.14-1.94.86-4.24,2.23-5.75,3.38-12.37,10-12.37,10l-1.29-1.29.14-.14c2.88-2.88,7.26-10.86,6.62-11.58-.65-.65-2.66,0-17.98,7.12l-.72-1.73c15.75-7.34,18.34-8.49,19.99-6.69,1.08,1.15-.07,4.24-1.8,7.34,2.01-1.65,4.31-3.38,6.47-4.67,1.65-.94,4.24-2.52,5.54-2.52,2.59,0,1.94,2.09,0,5.11-1.15,1.8-2.3,3.67-2.3,4.96,0,2.16,2.52,3.31,7.84,3.31,8.49,0,17.33-3.38,24.6-6.83l.86,1.73Z"/>
    <path class="cls-2" d="M479.53,211.86l.86,1.73s-24.31,12.23-32.58,12.23c-12.16,0-10.57-11.15,3.52-26.61,1.87-2.01,3.81-4.03,5.9-6.04h-1.29c-4.46,0-6.76-1.22-6.76-3.81h1.87c0,1.29,1.44,1.94,4.89,1.94,1.08,0,2.23-.07,3.45-.14,3.24-3.02,6.69-5.9,10.14-8.56l1.15,1.44c-2.73,2.09-5.47,4.39-8.06,6.76l3.09-.43c3.45-.43,6.9-.86,9.64-.86,4.03,0,6.11,1.08,6.11,3.38h-1.87c0-1.01-1.29-1.51-4.24-1.51-2.59,0-5.9.43-9.35.86-1.94.29-3.88.5-5.75.72-2.66,2.45-5.18,5.03-7.48,7.55-10.72,11.72-16.47,23.45-4.96,23.45,7.84,0,31.72-12.08,31.72-12.08Z"/>
    <path class="cls-2" d="M515.93,213.59c-8.56,4.32-21.94,9.71-30.21,7.98-5.32-1.08-7.62-4.96-7.41-8.7v-.14c.36-3.81,3.45-7.41,8.99-7.41,2.16,0,3.81,1.44,3.81,3.38,0,5.25-6.62,8.41-10.29,7.34.86,1.73,2.59,3.16,5.25,3.67,7.7,1.58,20.5-3.52,29.06-7.84l.79,1.73ZM480.18,212.87c.22,3.31,9.06.94,9.06-4.17,0-.86-.79-1.51-1.94-1.51-4.39,0-6.83,2.73-7.12,5.68Z"/>
    <path class="cls-2" d="M575.63,213.59c-7.41,3.45-16.69,6.98-25.46,6.98-6.33,0-9.71-1.65-9.71-5.18,0-1.87,1.44-4.17,2.59-5.97.86-1.37,1.15-1.94,1.22-2.16-.65.14-1.94.86-4.24,2.23-5.75,3.38-12.37,10-12.37,10l-1.29-1.29.14-.14c2.88-2.88,7.26-10.86,6.62-11.58-.65-.65-2.66,0-17.98,7.12l-.72-1.73c15.75-7.34,18.34-8.49,20-6.69,1.08,1.15-.07,4.24-1.8,7.34,2.01-1.65,4.31-3.38,6.47-4.67,1.65-.94,4.24-2.52,5.54-2.52,2.59,0,1.94,2.09,0,5.11-1.15,1.8-2.3,3.67-2.3,4.96,0,2.16,2.52,3.31,7.84,3.31,8.49,0,17.33-3.38,24.6-6.83l.86,1.73Z"/>
    <path class="cls-2" d="M635.33,213.59c-7.41,3.45-16.69,6.98-25.46,6.98-6.33,0-9.71-1.65-9.71-5.18,0-1.87,1.44-4.17,2.59-5.97.86-1.37,1.15-1.94,1.22-2.16-.65.14-1.94.86-4.24,2.23-5.75,3.38-12.37,10-12.37,10l-1.29-1.29.14-.14c2.88-2.88,7.26-10.86,6.62-11.58-.65-.65-2.66,0-17.98,7.12l-.72-1.73c15.75-7.34,18.34-8.49,20-6.69,1.08,1.15-.07,4.24-1.8,7.34,2.01-1.65,4.31-3.38,6.47-4.67,1.65-.94,4.24-2.52,5.54-2.52,2.59,0,1.94,2.09,0,5.11-1.15,1.8-2.3,3.67-2.3,4.96,0,2.16,2.52,3.31,7.84,3.31,8.49,0,17.33-3.38,24.6-6.83l.86,1.73Z"/>
    <path class="cls-2" d="M681.44,213.59c-7.41,3.6-19.42,6.98-28.19,6.98s-13.45-2.09-13.45-6.47c0-1.08.29-2.16.86-3.24-1.65.79-3.67,1.65-6.11,2.73l-.72-1.73c6.11-2.59,9.35-4.24,10.57-5.25l.07-.07,1.22,1.44c-2.95,2.52-4.03,4.17-4.03,6.11,0,3.02,3.67,4.6,11.58,4.6,8.49,0,20.07-3.24,27.33-6.83l.86,1.73ZM650.87,204.17l-1.01-1.58,3.74-2.45,1.01,1.58-3.74,2.45Z"/>
    <path class="cls-2" d="M719.85,213.59c-8.2,3.45-19.64,7.77-24.53,7.77-3.16,0-5.03-1.44-5.03-3.96,0-1.37.5-3.02,1.15-4.53-3.38,3.16-7.98,6.83-10.86,6.83-1.44,0-2.3-1.58-2.3-3.38,0-4.32,4.82-9.35,9.13-9.35,2.09,0,3.88,1.08,4.6,2.8l2.3-2.3.86.86.58.36c-.79,1.22-3.6,5.97-3.6,8.7,0,1.44.94,2.09,3.16,2.09,3.6,0,12.37-2.8,23.81-7.62l.72,1.73ZM680.58,217.83c2.37,0,6.69-3.6,9.93-6.62-.22-1.37-1.51-2.37-3.09-2.37-3.24,0-7.26,4.24-7.26,7.48,0,.79.29,1.51.43,1.51Z"/>
    <path class="cls-2" d="M724.53,202.37c-3.38,5.61-5.39,10.93-5.39,14.67,0,3.16,2.09,4.75,6.33,4.75,9.21,0,30.35-9.93,30.35-9.93l.72,1.73s-21.43,10.07-31.07,10.07c-5.25,0-8.2-2.3-8.2-6.62,0-5.47,3.67-13.59,9.71-21.51,9.21-12.01,24.02-23.59,39.06-23.59,3.09,0,4.89,1.22,4.89,3.52,0,9.06-28.34,31.07-40.06,31.07-3.24,0-5.39-1.51-6.33-4.17ZM725.97,200.14c.36,3.09,1.94,4.53,4.89,4.53,11.8,0,38.19-21.87,38.19-29.2,0-1.08-.86-1.65-3.02-1.65-14.38,0-28.48,11.08-37.55,22.87-.86,1.15-1.73,2.3-2.52,3.45Z"/>
  </g>
</svg>